<svg fill="none" viewBox="0 0 120 120"><rect width="120" height="120" fill="#0078E7" rx="12"/><path fill="#fff" d="M21.387 37.568H16.2l2.959-20.893H12L12.62 12h19.506l-.658 4.675H24.31l-2.922 20.893ZM108 12.694l-3.653 26.262-14.135-16.108-2.192 15.414h-4.967L86.706 12l14.135 16.144 2.192-15.45H108ZM91.016 82.432h8.547c4.894 0 8.437 3.105 8.437 7.78 0 5.223-3.908 9.387-9.314 9.387h-4.894L92.622 108h-5.186l3.58-25.568Zm3.433 12.492h4.2c3.251 0 4.164-2.776 4.164-4.347 0-2.009-1.351-3.47-3.908-3.47h-3.36l-1.096 7.817Z"/></svg>