<svg xmlns="http://www.w3.org/2000/svg" style="display: none;">
  <defs>
    <symbol id="bar"  fill="none" viewBox="0 0 32 32">
      <path stroke="currentColor" stroke-linecap="round" stroke-linejoin="round" stroke-width="2" d="M5.333 8h21.334M5.333 16h21.334M5.333 24h21.334"/>
    </symbol>
    <symbol id="mysql"  fill="none" viewBox="0 0 32 32">
      <path stroke="currentColor" stroke-linecap="round" stroke-linejoin="round" stroke-width="2" d="M17.333 28c-1.902-1.368-4.786-5.139-5.333-8-.648 1.027-2.001 2.667-2.667 2.667-1.998-1.184-.765-5.298 0-8C7.205 12.756 6.043 11.389 6 9.333c-4.467-4.586-.592-7.026 3.333-4h1.334c11.309.667 8.561 10.76 12 15.334 3.06.696 4.886 3.005 6.666 4.666-2.781-.266-3.712-.458-4.666 0 .637 2.187 2.83 2.934 4.666 4M12 9.333h.013"/>
    </symbol>
    <symbol id="laravel"  fill="none" viewBox="0 0 32 32">
      <path stroke="currentColor" stroke-linecap="round" stroke-linejoin="round" stroke-width="2" d="M14.667 29.333 4 22.667V7.333m10.667 22L24 24V13.333m-9.333 16V24M24 13.333 18.667 10M24 13.333 29.333 10m-10.666 0L24 6.667 29.333 10m-10.666 0v5.333M29.333 10v5.333L14.667 24m0 0-5.334-3.333m0 0v-10m0 10 9.334-5.334m-9.334-4.666L4 7.333m5.333 3.334 5.334-3.334M4 7.333 9.333 4l5.334 3.333m4 8L24 18.667m-9.333-1.334v-10"/>
    </symbol>
    <symbol id="php"  fill="none" viewBox="0 0 32 32">
      <path stroke="currentColor" stroke-linecap="round" stroke-linejoin="round" stroke-width="2" d="m7.333 20 1.334-6.667h1.76a1.332 1.332 0 0 1 1.314 1.552l-.222 1.334a1.334 1.334 0 0 1-1.315 1.114H8M20.667 20 22 13.333h1.76a1.332 1.332 0 0 1 1.315 1.552l-.223 1.334a1.334 1.334 0 0 1-1.315 1.114h-2.204M16 10l-1.333 7.333m.8-4h3.2l-.667 4M2.667 16c0 3.183 1.404 6.235 3.905 8.485C9.072 26.735 12.464 28 16 28c3.536 0 6.928-1.264 9.428-3.515 2.5-2.25 3.905-5.302 3.905-8.485s-1.404-6.235-3.905-8.485C22.928 5.265 19.536 4 16 4c-3.536 0-6.928 1.264-9.428 3.515-2.5 2.25-3.905 5.302-3.905 8.485Z"/>
    </symbol>
    <symbol id="scss"  fill="none" viewBox="0 0 32 32">
      <path stroke="currentColor" stroke-linecap="round" stroke-linejoin="round" stroke-width="2" d="M16 14.03c3.28-1.1 5.333-1.1 5.333-2.873 0-1.821-1.796-1.821-3.646-1.821-2.547 0-4.47.653-6.05 2.33-1.13 1.203-1.369 3.266-.204 4.41 1.298 1.275 4.275 2.385 3.846 4.657-.311 1.647-1.959 2.431-3.49 1.603-1.042-.565-.605-2.328.835-3.35 1.44-1.02 3.763-1.322 5.467-.32 1.306.767 1.394 2.3.578 2.925M4 16a12 12 0 1 0 24 0 12 12 0 0 0-24 0Z"/>
    </symbol>
    <symbol id="css"  fill="none" viewBox="0 0 32 32">
      <path stroke="currentColor" stroke-linecap="round" stroke-linejoin="round" stroke-width="2" d="M11.333 10.667h9.334l-6 5.333H20l-.667 4.667-3.333 1-3.333-1-.134-.667M26.667 5.333 24 24.667l-8 2.666-8-2.666L5.333 5.333h21.334Z"/>
    </symbol>
    <symbol id="html"  fill="none" viewBox="0 0 32 32">
      <path stroke="currentColor" stroke-linecap="round" stroke-linejoin="round" stroke-width="2" d="M20.667 10.667h-9.334L12 16h8l-.667 4.667-3.333 1-3.333-1-.134-.667M26.667 5.333 24 24.667l-8 2.666-8-2.666L5.333 5.333h21.334Z"/>
    </symbol>
    <symbol id="javascript"  fill="none" viewBox="0 0 32 32">
      <path stroke="currentColor" stroke-linecap="round" stroke-linejoin="round" stroke-width="2" d="M10 10.667h4v10.666L11.333 20M22 10.667h-3.333a.667.667 0 0 0-.667.666v4a.666.666 0 0 0 .667.667h1.897a.667.667 0 0 1 .66.76l-.557 3.907-2.667.666m8.667-16L24 24.667l-8 2.666-8-2.666L5.333 5.333h21.334Z"/>
    </symbol>
    <symbol id="typescript"  fill="none" viewBox="0 0 32 32">
      <path stroke="currentColor" stroke-linecap="round" stroke-linejoin="round" stroke-width="2" d="M20 23.333a2.276 2.276 0 0 0 1.61.667h.723c.92 0 1.667-.747 1.667-1.667V22a2 2 0 0 0-2-2 2 2 0 0 1-2-2v-.333c0-.92.747-1.667 1.667-1.667h.724c.604 0 1.182.24 1.609.667M12 16h5.333m-2.666 0v8M28 25.333V6.667A2.667 2.667 0 0 0 25.333 4H6.667A2.667 2.667 0 0 0 4 6.667v18.666A2.667 2.667 0 0 0 6.667 28h18.666A2.667 2.667 0 0 0 28 25.333Z"/>
    </symbol>
    <symbol id="nuxt"  fill="none" viewBox="0 0 32 32">
      <path stroke="currentColor" stroke-linecap="round" stroke-linejoin="round" stroke-width="2" d="M16.195 11.444 14.46 8.657a1.394 1.394 0 0 0-2.381.023L4.2 21.89A1.395 1.395 0 0 0 5.396 24h5.217m16.111 0c.99 0 1.601-1.124 1.093-2.007l-5.392-9.35a1.248 1.248 0 0 0-2.184 0l-5.39 9.35c-.51.883.101 2.007 1.092 2.007h10.781Z"/>
    </symbol>
    <symbol id="vue"  fill="none" viewBox="0 0 32 32">
      <path stroke="currentColor" stroke-linecap="round" stroke-linejoin="round" stroke-width="2" d="M22 5.333 16 16 10 5.333m-6 0 12 21.334L28 5.333"/>
    </symbol>
    <symbol id="telegram"  fill="none" viewBox="0 0 32 32">
      <path stroke="currentColor" stroke-linecap="round" stroke-linejoin="round" stroke-width="2" d="m20 13.333-5.333 5.334 8 8L28 5.333 4 14.667l5.333 2.666 2.667 8L16 20"/>
    </symbol>
    <symbol id="phone"  fill="none" viewBox="0 0 32 32">
      <path stroke="currentColor" stroke-linecap="round" stroke-linejoin="round" stroke-width="2" d="M20 9.333A2.667 2.667 0 0 1 22.667 12M20 4a8 8 0 0 1 8 8M6.667 5.333H12L14.667 12l-3.334 2A14.667 14.667 0 0 0 18 20.667l2-3.334L26.667 20v5.333A2.667 2.667 0 0 1 24 28 21.334 21.334 0 0 1 4 8a2.667 2.667 0 0 1 2.667-2.667Z"/>
    </symbol>
    <symbol id="email"  fill="none" viewBox="0 0 32 32">
      <path stroke="currentColor" stroke-linecap="round" stroke-linejoin="round" stroke-width="2" d="M21.333 16a5.333 5.333 0 1 1-10.666 0 5.333 5.333 0 0 1 10.666 0Zm0 0v2A3.333 3.333 0 1 0 28 18v-2a12 12 0 1 0-7.333 11.04"/>
    </symbol>
    <symbol id="instagram"  fill="none" viewBox="0 0 32 32">
      <path stroke="currentColor" stroke-linecap="round" stroke-linejoin="round" stroke-width="2" d="M5.333 10.667a5.333 5.333 0 0 1 5.334-5.334h10.666a5.333 5.333 0 0 1 5.334 5.334v10.666a5.333 5.333 0 0 1-5.334 5.334H10.667a5.333 5.333 0 0 1-5.334-5.334V10.667Z"/>
      <path stroke="currentColor" stroke-linecap="round" stroke-linejoin="round" stroke-width="2" d="M12 16a4 4 0 1 0 8 0 4 4 0 0 0-8 0Z"/>
    </symbol>
    <symbol id="github"  fill="none" viewBox="0 0 32 32">
      <path stroke="currentColor" stroke-linecap="round" stroke-linejoin="round" stroke-width="2" d="M12 25.333c-5.733 1.867-5.733-3.333-8-4M20 28v-4.667c0-1.333.133-1.866-.667-2.666 3.734-.4 7.334-1.867 7.334-8A6.134 6.134 0 0 0 24.933 8.4a5.6 5.6 0 0 0-.133-4.267s-1.467-.4-4.667 1.734a16.4 16.4 0 0 0-8.266 0C8.667 3.733 7.2 4.133 7.2 4.133A5.6 5.6 0 0 0 7.067 8.4a6.133 6.133 0 0 0-1.734 4.267c0 6.133 3.6 7.6 7.334 8-.8.8-.8 1.6-.667 2.666V28"/>
    </symbol>
    <symbol id="whatsapp"  fill="none" viewBox="0 0 32 32">
      <path stroke="currentColor" stroke-linecap="round" stroke-linejoin="round" stroke-width="2" d="M12 13.333a.666.666 0 1 0 1.333 0V12A.667.667 0 1 0 12 12v1.333Zm0 0A6.667 6.667 0 0 0 18.667 20m0 0H20a.667.667 0 1 0 0-1.333h-1.333a.667.667 0 1 0 0 1.333ZM4 28l2.2-5.067a12 12 0 1 1 4.533 3.867L4 28Z"/>
    </symbol>
    <symbol id="vk"  fill="none" viewBox="0 0 32 32">
      <path stroke="currentColor" stroke-linecap="round" stroke-linejoin="round" stroke-width="2" d="M18.667 25.333h-5.334A10.667 10.667 0 0 1 2.667 14.667V8H8v6.667A5.333 5.333 0 0 0 13.333 20V8h5.334v6h.04A6.041 6.041 0 0 0 24 8.005h5.333l-.456 2.282A9.144 9.144 0 0 1 24 16.672a7.12 7.12 0 0 1 4.755 5.481l.578 3.186H24a6.041 6.041 0 0 0-5.293-5.995v6l-.04-.01Z"/>
    </symbol>
    <symbol id="www"  fill="none" viewBox="0 0 32 32">
      <path stroke="currentColor" stroke-linecap="round" stroke-linejoin="round" stroke-width="2" d="M26 9.333A12 12 0 0 0 16 4a11.988 11.988 0 0 0-9.979 5.333M15.333 4A22.655 22.655 0 0 0 12.9 9.333M16.667 4a22.65 22.65 0 0 1 2.437 5.333M26 22.667A12 12 0 0 1 16 28a11.988 11.988 0 0 1-9.979-5.333M15.333 28a22.655 22.655 0 0 1-2.434-5.333M16.667 28a22.648 22.648 0 0 0 2.437-5.333M2.667 13.333 4 18.667l2-5.334 2 5.334 1.333-5.334m13.334 0L24 18.667l2-5.334 2 5.334 1.333-5.334m-16.666 0L14 18.667l2-5.334 2 5.334 1.333-5.334"/>
    </symbol>
    <symbol id="link"  fill="none" viewBox="0 0 32 32">
      <path stroke="currentColor" stroke-linecap="round" stroke-linejoin="round" stroke-width="2" d="M9 22.333 22.333 9m0 0h-12m12 0v12"/>
    </symbol>
    <symbol id="arrow-badge-up"  fill="none" viewBox="0 0 32 32">
      <path stroke="currentColor" stroke-linecap="round" stroke-linejoin="round" stroke-width="2" d="m16 26.667 5.333-5.334M16 26.667l-5.333-5.334M16 26.667V13.333m-10.667-8h21.334"/>
    </symbol>
    <symbol id="arrow-badge-down"  fill="none" viewBox="0 0 32 32">
      <path stroke="currentColor" stroke-linecap="round" stroke-linejoin="round" stroke-width="2" d="m16 5.333-5.333 5.334M16 5.333l5.333 5.334M16 5.333v13.334m10.667 8H5.333"/>
    </symbol>
  </defs>
</svg>
