<svg xmlns="http://www.w3.org/2000/svg" width="100" height="63.793">
	<path fill="none" d="M100 0H78.448v21.552H100V0Z"/>
	<path fill="#A8D6DA" fill-rule="evenodd" d="M48.276 32.759v1.724h13.793v-12.07H50L48.276 32.76Z"/>
	<path fill="#C0F5F9" fill-rule="evenodd" d="M50 32.759h12.069v-8.621H51.724L50 32.758Z"/>
	<path fill="#EBEBEB" d="M68.966 22.414v1.724h27.586v-1.724l-5.81-6.03a10.776 10.776 0 0 0-15.243-.276l-6.533 6.306Z"/>
	<path fill="#489123" fill-rule="evenodd"
				d="M70.69 37.931v1.724h24.138v-1.724l3.448-6.896v-8.621H67.24v8.62l3.449 6.897Z"/>
	<path fill="#57b02a" fill-rule="evenodd"
				d="M48.276 32.759 32.759 37.93h-1.724v13.793H50V32.76h-1.724ZM100 37.931H60.345v18.966H100V37.93Z"/>
	<path fill="#5fc02e" fill-rule="evenodd"
				d="M98.276 22.414H67.24v8.62h31.035v-8.62ZM62.069 32.759H48.276v24.138h13.793V32.759Z"/>
	<path fill="#F7F7F7"
				d="M0 62.431v1.362h25.862V53.448a6.897 6.897 0 0 0-12.911-3.373 5.174 5.174 0 0 0-5.994 5.895l-1.472.196A6.32 6.32 0 0 0 0 62.43Z"/>
	<path fill="#EBEBEB"
				d="M.356 63.793h25.506v-6.896a6.897 6.897 0 0 0-12.911-3.374 5.174 5.174 0 0 0-5.994 5.895l-1.472.196a6.313 6.313 0 0 0-5.13 4.18Z"/>
	<path fill="#DBDBDB" fill-rule="evenodd" d="M48.276 44.828H32.759v6.896h15.517v-6.896Z"/>
	<path fill="#57b02a" fill-rule="evenodd" d="m79.31 37.931-1.724-6.896h10.345l-1.724 6.896H79.31Z"/>
	<path fill="#EBEBEB" fill-rule="evenodd"
				d="M63.793 10.345a3.448 3.448 0 1 0-6.896 0 3.448 3.448 0 0 0 6.896 0ZM37.931 22.414a3.448 3.448 0 1 0-6.896 0 3.448 3.448 0 0 0 6.896 0ZM29.31 3.448a3.448 3.448 0 1 0-6.896 0 3.448 3.448 0 0 0 6.896 0ZM94.828 3.448a3.448 3.448 0 1 0-6.897 0 3.448 3.448 0 0 0 6.897 0ZM15.517 31.035a3.448 3.448 0 1 0-6.896 0 3.448 3.448 0 0 0 6.896 0ZM10.345 13.793a3.448 3.448 0 1 0-6.897 0 3.448 3.448 0 0 0 6.897 0Z"/>
	<path fill="#4fa026"
				d="M21.983 56.897h3.88V34.483h3.307a3.589 3.589 0 0 1 3.589 3.588v23.136a2.586 2.586 0 0 1-2.587 2.586H18.965v-3.88a3.017 3.017 0 0 1 3.018-3.016Z"/>
	<path fill="#111" fill-rule="evenodd" d="M100 55.172a8.62 8.62 0 1 0-17.241 0 8.62 8.62 0 0 0 17.241 0Z"/>
	<path fill="#EBEBEB" fill-rule="evenodd" d="M94.828 55.172a3.448 3.448 0 1 0-6.897 0 3.448 3.448 0 0 0 6.897 0Z"/>
	<path fill="#111" fill-rule="evenodd" d="M82.759 55.172a8.62 8.62 0 1 0-17.242 0 8.62 8.62 0 0 0 17.242 0Z"/>
	<path fill="#EBEBEB" fill-rule="evenodd" d="M77.586 55.172a3.448 3.448 0 1 0-6.896 0 3.448 3.448 0 0 0 6.896 0Z"/>
	<path fill="#489123" fill-rule="evenodd" d="M65.517 50H55.172v6.897h10.345V50Z"/>
	<path fill="#111" fill-rule="evenodd" d="M55.172 55.172a8.62 8.62 0 1 0-17.241 0 8.62 8.62 0 0 0 17.241 0Z"/>
	<path fill="#EBEBEB" fill-rule="evenodd" d="M50 55.172a3.448 3.448 0 1 0-6.896 0 3.448 3.448 0 0 0 6.896 0Z"/>
</svg>
