<svg width="32" height="32" fill="none" viewBox="0 0 32 32">
  <path stroke="currentColor" stroke-linecap="round" stroke-linejoin="round" stroke-width="2" d="M26 9.333A12 12 0 0 0 16 4a11.988 11.988 0 0 0-9.979 5.333M15.333 4A22.655 22.655 0 0 0 12.9 9.333M16.667 4a22.65 22.65 0 0 1 2.437 5.333M26 22.667A12 12 0 0 1 16 28a11.988 11.988 0 0 1-9.979-5.333M15.333 28a22.655 22.655 0 0 1-2.434-5.333M16.667 28a22.648 22.648 0 0 0 2.437-5.333M2.667 13.333 4 18.667l2-5.334 2 5.334 1.333-5.334m13.334 0L24 18.667l2-5.334 2 5.334 1.333-5.334m-16.666 0L14 18.667l2-5.334 2 5.334 1.333-5.334"/>
</svg>
